<?xml version="1.0" encoding="utf-8"?>
<!-- Svg Vector Icons : http://www.onlinewebfonts.com/icon -->
<!DOCTYPE svg PUBLIC "-//W3C//DTD SVG 1.1//EN" "http://www.w3.org/Graphics/SVG/1.1/DTD/svg11.dtd">
<svg version="1.1" xmlns="http://www.w3.org/2000/svg" xmlns:xlink="http://www.w3.org/1999/xlink" x="0px" y="0px" viewBox="0 0 1000 1000" enable-background="new 0 0 1000 1000" xml:space="preserve">
<metadata> Svg Vector Icons : http://www.onlinewebfonts.com/icon </metadata>
<g><g style="fill:#fff;" transform="translate(0.000000,511.000000) scale(0.100000,-0.100000)"><path d="M8951.2,3476.5c-448.2-165.4-2596.9-942.4-4774.8-1727.7C-160.8,182.2,103.1,286.9,103.1,113.1c0-60.7,14.7-98.4,58.6-144.5c58.6-67,1392.7-984.3,1451.3-1001c25.1-6.3,5285.8,2745.5,6318.3,3304.7c81.7,46.1,150.8,79.6,150.8,75.4c0-6.3-1229.3-927.8-2733-2048.2l-2733-2039.8l6.3-850.3c4.2-804.2,6.3-854.4,44-896.3c23-25.1,64.9-44,94.2-44c35.6,0,263.9,140.3,666,408.4c337.2,224.1,617.8,408.4,624.1,408.4c4.2,0,284.8-188.5,622-418.8c557.1-379,622-418.8,701.6-418.8c69.1,0,102.6,12.6,150.8,58.6c33.5,31.4,228.3,335.1,433.5,674.4c312,519.4,2437.7,4025.1,3614.6,5962.3c184.3,303.7,330.9,567.5,326.7,586.4c-4.2,25.1-27.2,39.8-69.1,41.9C9795.2,3773.8,9416.2,3646.1,8951.2,3476.5z"/></g></g>
</svg>